<svg version="1.1" id="Слой_1" xmlns="http://www.w3.org/2000/svg" xmlns:xlink="http://www.w3.org/1999/xlink" x="0px" y="0px"
	 viewBox="0 0 1262 1873.3" style="enable-background:new 0 0 1262 1873.3;" xml:space="preserve">
<style type="text/css">
	.st0{fill:none;}
	.st1{fill:#919191FF;}
	.st2{fill:none;stroke:#919191FF;stroke-miterlimit:10;}
</style>
<g id="XMLID_1_">
	<g>
		<path class="st0" d="M1243,598.9c-0.3,0.7-0.7,1.3-1,2c-2.3,0.7-4.7,1.3-7,2c-0.7-0.7-1.3-1.3-2-2c1.3-1.7,2.7-3.3,4-5
			c1.3,0.7,2.7,1.3,4,2C1241.7,598.3,1242.3,598.6,1243,598.9z"/>
		<path class="st0" d="M1196,673.9c0.3,0,0.7,0,1,0c-2.2,7.4-12.6,15.9-20,18c-0.3,0-0.7,0-1,0c-0.3-0.7-0.7-1.3-1-2
			C1183.1,685.8,1190.8,680.9,1196,673.9z"/>
		<path class="st1" d="M1177,691.9c7.4-2.1,17.8-10.6,20-18c-0.3,0-0.7,0-1,0c-5.2,7-12.9,11.9-21,16c0.3,0.7,0.7,1.3,1,2
			C1176.3,691.9,1176.7,691.9,1177,691.9z M1006,422.9c0.4,27.6,34.6,40.3,58,24c0.1-12.4-3.1-19.5-6-28c-15-0.3-30-0.7-45-1
			C1010.7,419.6,1008.3,421.3,1006,422.9z M1004,422.9c8.6-15.5,33.4-18.6,39-29c-3.3,0-6.7,0-10,0c-13.3,9.4-30.6,15.3-35,33
			c0.3,0,0.7,0,1,0C1000.7,425.6,1002.4,424.3,1004,422.9z M525.1,493.9c2,0,4,0,6,0c0.6,5.4,1.9,6.5,4,10c2.7,0.3,5.3,0.7,8,1
			c0.7-3.3,1.3-6.7,2-10c6.7-0.8,11.3-3.9,12-11c-4.1-2.5-3.9-5.1-9-7c-0.7,0.3-1.3,0.7-2,1c-1,6.3-1.4,8-7,11c-0.3,0-0.7,0-1,0
			c-1.1-6.3-3.1-6.9-10-7c-1.3,1.7-2.7,3.3-4,5C524.4,489.3,524.7,491.6,525.1,493.9z M534.1,513.9c-19.6-44.1-65.6-66.4-99-97
			c-24.9,0-39.1,9.2-55,16c-10.7,2.3-21.3,4.7-32,7c-14.1,8.8-39.9,32.9-50,46c-3.7,5.7-7.3,11.3-11,17c-9,5-18,10-27,15
			c-11,7.9-13.9,23-31,25c-8.6-3-22.3-5.9-27-13c-0.7-1.3-1.3-2.7-2-4c3.9-19.6,23.1-18.5,37-28c7.9-5.4,10.3-14.5,21-18
			c-9.4,14.9-26.4,24.5-33,42c1.3-0.7,2.7-1.3,4-2c9.5-19,35-29.7,48-46c23.1-29,56.5-50.2,86-73c26-22.7,52-45.3,78-68
			c9.4-7.2,29.1-14.8,34-20c-0.7-1.7-1.3-3.3-2-5c5.6-1.5,10.3-3.2,12-9c-2.3,0.3-4.5,0.5-6.8,0.8c16.6-16.7,29.2-14.8,41.4-9.8
			c-2.2,0-4.5,0-6.7,0c-0.3,0.7-0.7,1.3-1,2c3.4,1.8,5.5,2.8,9,0c-0.3-0.6-0.6-1.2-0.9-1.8c11.1,4.6,21.8,11.8,34.9,9.8
			c0.3-2,0.7-4,1-6c-3,0.3-6,0.7-9,1c0.7-0.7,1.3-1.3,2-2c9.5-20.3,34.5-44.8,54-55c12.3-3,24.7-6,37-9c36.2-0.8,63.4,7.4,90,14
			c7.3-0.7,14.7-1.3,22-2c29,7.7,55.6,23.9,81,35c67,29.4,135.5,57.9,200,87c53.8,24.3,122,52.8,155,97c13.5,18,29.1,38.5,37,61
			c4,19,8,38,12,57c10.3,4.2,18,10.5,25,18c-0.1,23-21.1,26.6-32,39c-29.7,33.6-29.2,53.9-80,70c-19.3,6.1-21.2,10.1-43,5
			c-1-2.7-2-5.3-3-8c-1.7,0.3-3.3,0.7-5,1c-1.7,7.7-5.3,11.6-10,16c-10.9-0.5-16.6-5.7-25-2c-4.5,18.9,9.6,22.9-4,43
			c-24.1,7.1-65.4,4.1-70-21c3.2-8.1,8.8-18.1,11-24c0-0.7,0-1.3,0-2c-0.7-12-1.3-24-2-36c1.5-8.5,7.3-16.7,5-28
			c-5.8-28.8-19.1-52.7-28-77c-2-12.3-4-24.7-6-37c-6-14.3-12-28.7-18-43c-9.2-24.8-29.6-85.1-70-61c-1.7,3.7-3.3,7.3-5,11
			c2,9.1,6.5,9.6,0,15c-7.1,17.4-22.8,35.2-30,52c-2,7.3-4,14.7-6,22c-10.3,11.7-20.7,23.3-31,35c-4.3,11-8.7,22-13,33
			c-7.3,8.3-14.7,16.7-22,25c-6.6,10.4-23.8,47.3-6,56c10.9-4.7,12.4-10.1,20-17c5.2-4.7,44.4-17.9,57-14c6.5,2,11.2,8.1,16,11
			c13.1,7.9,12.8-6.2,22,12c19.1-5,38.4-32.9,68-21c7.3,3,9.1,13.1,16,16c9.2,3.9,15.8,1,22,7c-5.8,14.3-25.3,17-34,29
			c0.3,1,0.7,2,1,3c1.7,0,3.3,0,5,0c7.8-4.5,14.3-8.1,25-6c0.7,17.1-2.4,26.1-5,41c0.7,5,1.3,10,2,15c-1.1,4.2-7.1,8.6-8,15
			c-2.6,18,11.6,22.5,1,48c-11.2-1.6-29.7-10-35-18c-2.3-6-4.7-12-7-18c-1.7,0-3.3,0-5,0c-6,4.3-5.4,8.3-16,9
			c-15.5-9.6-39.8-14.4-50-29c-9.3-13.3-3.5-26.6-22-31c-22.7-5.5-46.9,13.9-74,6c-11.9-3.4-24.5-18.9-33-27c-28.7-0.3-31,18-54,21
			c-0.7-1.3-1.3-2.7-2-4c4.8-2,5.5-3.7,6-10c-5-6-10-12-15-18c3.3-6.9,20.8-9,27-13c0.6-15.5-2.5-36.1-13-43
			c-15.5-10.2-51.9-1.4-72-5c-21.2-3.8-35-10.2-49-21C536.5,597.4,548.7,546.9,534.1,513.9z M1242,600.9c0.3-0.7,0.7-1.3,1-2
			c-0.7-0.3-1.3-0.7-2-1c-1.3-0.7-2.7-1.3-4-2c-1.3,1.7-2.7,3.3-4,5c0.7,0.7,1.3,1.3,2,2C1237.3,602.3,1239.7,601.6,1242,600.9z
			 M1065,391c-0.3-1.3-0.7-2.7-1-4c-1.7,0-3.3,0-5,0c-1.3,0.3-2.7,0.7-4,1c0,0.3,0,0.7,0,1c0.7,0.3,1.3,0.7,2,1
			C1059.7,390.3,1062.3,390.6,1065,391z M991,400c3-6.3,6-12.7,9-19c-11-17.1-34.4-13.1-57-19c0-1,0-2,0-3c0.7-0.7,1.3-1.3,2-2
			c11.6,0.4,23.6-1,30-6c-9.5-12-25.2-12-39-20c-27.7-16-60.9-25.9-92-38c-12.8-5-23.6-14.2-40-15c-0.7,0.3-1.3,0.7-2,1
			c0.3,1,0.7,2,1,3c8.3,8.3,16.7,16.7,25,25c21.5-4.5,57,4.7,64,23c-11.4-0.7-15.6,0.5-19,8c2,6.6,3.9,10,7,15c-3.3,4.2-4.8,4-5,12
			c2.3,0.3,4.7,0.7,7,1c8.3,3.4,8,8.6,13,15c9.3-0.3,18.7-0.7,28-1c7.2,15.7,15.9,4.5,31,11C965.1,395.7,976.2,409.2,991,400z
			 M845,499.9c1.7-3.3,3.3-6.7,5-10c-1.7,0-3.3,0-5,0c-2.8,3.9-7.1,7.9-2,11C843.7,500.6,844.4,500.3,845,499.9z M811,348
			c-2-9-4-18-6-27c-14.5-6.4-30.9-12.4-51-13c-1,1.3-2,2.7-3,4c2.1,12.5,9.5,22.7,16,31c15.2,0.8,26.3,10.2,41,8
			C809,350,810,349,811,348z M696.1,337c-1.9-9.9-10.9-22.2-19-26c-4-0.3-8-0.7-12-1c-11.6,4.5-25.8,1.3-33,10
			C642,340.3,668.6,346,696.1,337z M525.1,355c2.5-13.4,8.1-22.7,8-38c-1-0.7-2-1.3-3-2c-8.3-1.3-16.7-2.7-25-4c-1.7,1-3.3,2-5,3
			c-0.8,7.7-3.3,20.6-7,26c-0.3,0-0.7,0-1,0c-11.9-1.8-21.7-7.7-35-1c-8.8,4.4-13.4,16.7-18,26c-6.7,13.4-41.9,27.8-53,42
			c0.6,5-0.2,3.9,3,6c20.8,8.6,42.3-7.4,55-11c7.7-0.3,15.3-0.7,23-1c4-3,8-6,12-9c20.8-6.4,37.5,5.5,45-15
			C524.4,369.6,524.7,362.3,525.1,355z"/>
		<path class="st1" d="M1104,202c0-1,0-2,0-3c-0.7,1.3-1.3,2.7-2,4C1102.7,202.6,1103.3,202.3,1104,202z M805,2c0.7,1.3,1.3,2.7,2,4
			c9.9-5.5,17.7-4,30-5c0,0.3,0,0.7,0,1c-0.7,2-1.3,4-2,6c0.3,0,0.7,0,1,0c2.7-1.7,5.3-3.3,8-5c0.3,1.7,0.7,3.3,1,5
			c6.4-1.7,8.4-5.8,11,0c-1,0.7-2,1.3-3,2c9.9-3.4,21.4,4.2,22,13c9.5-1.3,28.9,3.4,37,9c-0.7,1.3-1.3,2.7-2,4
			c7.1,0.9,16.3,5.3,28,4c0,0.3,0,0.7,0,1c-0.7,1-1.3,2-2,3c-2.5,1.5-2.5,1.5-4,4c0.3,0,0.7,0,1,0c5.7-3.8,8.3-4.4,16-5
			c-1.3,2.3-2.7,4.7-4,7c6.2-2.3,11-8.1,16-3c-1.3,2.3-2.7,4.7-4,7c2.7-0.3,5.3-0.7,8-1c1.3,2.7,2.7,5.3,4,8c9.1-1.6,16.1,1,24,5
			c-1.5,4.5-1.8,5.6,0,9c1.7-1,3.3-2,5-3c1.3,0.7,2.7,1.3,4,2c-1.3,2.3-2.7,4.7-4,7c0.3,0,0.7,0,1,0c4.3-1,8.7-2,13-3
			c2,5.4,0,3.7,6,4c-0.7,2.7-1.3,5.3-2,8c3.3,0,6.7,0,10,0c-0.7,1.3-1.3,2.7-2,4c2-0.7,4-1.3,6-2c0,0.3,0,0.7,0,1
			c-1.3,2.3-2.7,4.7-4,7c2.7-1.3,5.3-2.7,8-4c0,0.3,0,0.7,0,1c-1.7,2-3.3,4-5,6c-5.5,2.7-6.5,7.7-9,13c6.8-3.8,6.1-9,12-14
			c0.3,0,0.7,0,1,0c0.7,5.4,0,4.1,4,6c-1.7,2.7-3.3,5.3-5,8c6.3-0.7,8,1.3,15-1c0.3,2.7,0.7,5.3,1,8c5.3-1.3,10.7-2.7,16-4
			c0,0.3,0,0.7,0,1c-4.7,5.2-8.4,7.3-10,16c1,0,2,0,3,0c2.3-1,4.7-2,7-3c-0.3,1.3-0.7,2.7-1,4c-2.2,3.1-4.9,3.9-7,7
			c4.7-3.3,9.3-6.7,14-10c0.3,0.3,0.7,0.7,1,1c-2.3,3.3-4.7,6.7-7,10c4.6-2.7,7.6-5,14-6c0,0.3,0,0.7,0,1c-1,1.7-2,3.3-3,5
			c5-0.8,3.4-3.3,6,1c-1.7,0.7-3.3,1.3-5,2c-3.4,0.6-7.5,5.6-10,10c5.1-2,7.5-4.5,10-9c0.7,0.3,1.3,0.7,2,1c1.3,8.5,9.5,14.7,17,17
			c-1.4,2.9-12.8,17.8-10,22c0.3,0,0.7,0,1,0c0.7-3.7-0.5-6.1,4-8c0.9,4.5-0.1,3,3,5c0-5.2,4.2-11.6,9-15c1.3,2.3,2.7,4.7,4,7
			c-1.9,9.3-7.4,12.1-10,20c7.2-1.6,5.8-2,13-1c-5.6,12-12.5,17.2-22,25c0.3,0.7,0.7,1.3,1,2c7.3,0.6,8.6-0.6,15-2c0,0.3,0,0.7,0,1
			c-0.7,0-1.3,0-2,0c-4,3.7-8,7.3-12,11c0.3,2,0.7,4,1,6c0.3,0,0.7,0,1,0c7.7-1.7,14.1-2.7,23-3c0,0.3,0,0.7,0,1
			c-5.4,0.5-8,0.6-10,5c1.3,0,2.7,0,4,0c-2,2.3-4,4.7-6,7c0,1,0,2,0,3c4,0.4,3.9,0.3,6,2c-0.3,0.7-0.7,1.3-1,2c-2.7,1-5.3,2-8,3
			c0,0.3,0,0.7,0,1c4-0.7,8-1.3,12-2c-1.3,2-2.7,4-4,6c4.7-1.2,24.3,3.8,28,7c0,0.3,0,0.7,0,1c-10.8-0.9-23.5-1.9-26,8
			c0.7,0,1.3,0,2,0c2.9,0.8,2.7,0,6-1c-3.2,7.9,1.4,7.4,9,10c-0.7,0-1.3,0-2,0c-0.3,0.7-0.7,1.3-1,2c-7.7,0.7-15.3,1.3-23,2
			c-0.6,4.4,2,2-2,4c-11.7-36.4-26.9-67-56-86c-4.3-5.3-8.7-10.7-13-16c-15.7-9.6-17.1,7.3-30-15c-1.7,0-3.3,0-5,0
			c-2.6,2.2-4.4,4.7-7,7c-22.7-10.8-14-0.1-27,9c-7-4-14-8-21-12c-0.3-0.3-0.7-0.7-1-1c-3.7-7.3-7.3-14.7-11-22
			c-7.7-7.7-15.3-15.3-23-23c0-5,0-10,0-15c-5.4-1.3-10.8,0.4-15-3c-2-3-4-6-6-9c-11.2,0.6-19.3-0.3-26,1c0.9-5.4,1-5.4,2-9
			c2-0.7,4-1.3,6-2c-0.7-0.7-1.3-1.3-2-2c-31.8,13.9-42.2-3.9-69-11c-10.3,0.7-20.7,1.3-31,2c-9-2.7-18-5.3-27-8
			c-8.6-1.5-14.1,3.7-20,5c-13.3-0.7-26.7-1.3-40-2c-13.7,3.7-27.3,7.3-41,11c-1-4.5-1.6-4.4-4-7c-0.3,0-0.7,0-1,0
			c-34.5,27.5-90.8,34.8-126,61c-23.4,17.4-34.6,61.1-53,86c-16.6,0.9-36.9,2.1-47,7c-2.7,1.3-4.7,6-9,7c-9.1,2.2-15.3-2.9-21-4
			c-10.4-2-21.1,3.8-29,7c-22.3,9.1-32.6,33.6-48,50c-9.7,10.3-24.8,16.1-34,27c-44.3,52.5-60.6,102.1-81,176c-3.3,0-6.7,0-10,0
			c-3-2-6-4-9-6c-3.6-7.1,6.5-24.6,8-29c-0.7-7-1.3-14-2-21c5.8-25.3,15.8-51.6,26-72c-1.7-0.3-3.3-0.7-5-1
			c9.4-24.1,25.9-52.8,41-72c6-7.7,6.8-20.4,12-28c8.2-12.1,33.7-27.9,35-42c4.2,1.4,10,1.4,13-1c3.5-3,3.4-9.1,3-16
			c1.7,0.7,3.3,1.3,5,2c0-1.7,0-3.3,0-5c-1.7-3.6-2.4-3.7,0-7c4.4-0.9,5.7-2.7,13-1c0.9-10.5,23.4-20.9,30-32c2.6,1.8,1.8,2,6,3
			c2.4-13.3,14.1-11.9,21-20c2.3-4.7,4.7-9.3,7-14c0,1,0,2,0,3c7.6-2.4,19.8-10.5,23-18c9-0.4,21.8-8.8,24-5c4-3.3,8-6.7,12-10
			c0.5,5,0.5,4.6,3,7c1.7-0.3,3.3-0.7,5-1c1-3.3,2-6.7,3-10c1.5,4.2-0.2,2.5,4,4c4.8-16.1,14.4-14.5,23-25c0.9,0.5,2.2,3.6,5,2
			c3.1-1.8,1.7-6.3,4-9c7.4-8.9,24.6-8.6,32-18c0.8,0.7,5,4.1,8,2c4.4-3,1.3-6.5,9-8c2,3.7-0.4,1.6,4,3c11.2-17.6,50.4-13.6,69-35
			c0.7,0.7,1.3,1.3,2,2c0,1,0,2,0,3c7.7-5.1,22.2-10.7,35-16c3.1,2.6,3.3,0,3,4c13.6-7.6,19.5-5.7,33,1c3.6-3.4,5.6-8.4,9-12
			c2.8,2.7,2.6,2,2,6c10.6-7,15.3-7,29-12c0.9,5.4,1.8,4.6,4,8c4.7-2.7,23-8.9,32-9c0,1.7,0,3.3,0,5c5.5-1.9,7.1-2.7,10-7
			c0.3,1.3,0.7,2.7,1,4c1.3,0,2.7,0,4,0c3.9-2.8,4.6-3.9,12-4c0,0.3,0,0.7,0,1c-0.7,1.3-1.3,2.7-2,4c9.9-6.6,18.8-3.9,26,0
			C804.5,2.4,803.1,4.5,805,2z M1088,192c-0.7,1-1.3,2-2,3C1089.1,193.2,1087.5,194,1088,192z M1087,169c-0.7-1-1.3-2-2-3
			c-0.3,0-0.7,0-1,0c-2,1-4,2-6,3c2.7,3.6,2.7,0.4,1,5C1081.7,172.3,1084.3,170.6,1087,169z M1074,204c2.1-0.9,1.1,0,1-2
			C1074.7,202.6,1074.3,203.3,1074,204z M1046,136c1.7-1.7,3.3-3.3,5-5c-0.7,0-1.3,0-2,0C1048,132.7,1047,134.3,1046,136z"/>
		<path class="st0" d="M1104,199c0,1,0,2,0,3c-0.7,0.3-1.3,0.7-2,1C1102.7,201.6,1103.3,200.3,1104,199z"/>
		<path class="st0" d="M1086,195c0.7-1,1.3-2,2-3C1087.5,194,1089.1,193.2,1086,195z"/>
		<path class="st0" d="M1085,166c0.7,1,1.3,2,2,3c-2.7,1.7-5.3,3.3-8,5c1.7-4.6,1.7-1.4-1-5c2-1,4-2,6-3
			C1084.3,166,1084.7,166,1085,166z"/>
		<path class="st0" d="M1075,202c0.1,2,1.1,1.1-1,2C1074.3,203.3,1074.7,202.6,1075,202z"/>
		<path class="st0" d="M1064,387c0.3,1.3,0.7,2.7,1,4c-2.7-0.3-5.3-0.7-8-1c-0.7-0.3-1.3-0.7-2-1c0-0.3,0-0.7,0-1
			c1.3-0.3,2.7-0.7,4-1C1060.7,387,1062.3,387,1064,387z"/>
		<path class="st0" d="M1058,418.9c2.9,8.5,6.1,15.6,6,28c-23.4,16.3-57.6,3.6-58-24c2.3-1.7,4.7-3.3,7-5
			C1028,418.3,1043,418.6,1058,418.9z"/>
		<path class="st0" d="M1051,131c-1.7,1.7-3.3,3.3-5,5c1-1.7,2-3.3,3-5C1049.7,131,1050.3,131,1051,131z"/>
		<path class="st0" d="M1033,394c3.3,0,6.7,0,10,0c-5.6,10.4-30.4,13.5-39,29c-1.7,1.3-3.3,2.7-5,4c-0.3,0-0.7,0-1,0
			C1002.4,409.2,1019.7,403.3,1033,394z"/>
		<path class="st0" d="M1000,381c-3,6.3-6,12.7-9,19c-14.8,9.2-25.9-4.3-37-9c-15.1-6.5-23.8,4.7-31-11c-9.3,0.3-18.7,0.7-28,1
			c-5-6.4-4.7-11.6-13-15c-2.3-0.3-4.7-0.7-7-1c0.2-8,1.7-7.8,5-12c-3.1-5-5-8.4-7-15c3.4-7.5,7.6-8.7,19-8c-7-18.3-42.5-27.5-64-23
			c-8.3-8.3-16.7-16.7-25-25c-0.3-1-0.7-2-1-3c0.7-0.3,1.3-0.7,2-1c16.4,0.8,27.2,10,40,15c31.1,12.1,64.3,22,92,38
			c13.8,8,29.5,8,39,20c-6.4,5-18.4,6.4-30,6c-0.7,0.7-1.3,1.3-2,2c0,1,0,2,0,3C965.6,367.9,989,363.9,1000,381z"/>
		<path class="st1" d="M996,1088.9c25,38.4-3,80.4-15,113c-0.7-0.3-1.3-0.7-2-1c-4.5-15.6-1.8-30.9-5-49c0.7-4,1.3-8,2-12
			c-0.9-2-6.9-5.3-8-8c0.7-9.7,1.3-19.3,2-29c-2.8-12.2-10.6-29.6-16-43c6.5,2.6,8.7,10.1,14,14C975.5,1079.4,991.1,1081,996,1088.9
			z"/>
		<path class="st1" d="M984,957.9c13.1,20.9,7.2,48.4,7,76c-1.7,1.7-3.3,3.3-5,5c-6.7-0.6-10.7-3.2-15-6c-4.7-9.7-9.3-19.3-14-29
			c-5-15.1-2.6-28.9-7-46c-5.9-22.7-35.8-59.2-64-50c-7.3,0-14.7,0-22,0c-1,0.7-2,1.3-3,2c1.7,5.7,3.3,11.3,5,17
			c28.5,3.1,51.4,23.7,58,49c4.7,18.3-6.9,42.1-10,58c-3.3,17.2-0.1,27-7,38c-34.7,10.6-32-13.3-52-21c-14.3-5.5-38.4-5.5-52-14
			c-9.3-5.8-10.4-16.2-25-22c-18.7-7.4-42.8-11.2-59-22c-0.1-6.1,0.7-13.6-3-18c-1-1.3-2-2.7-3-4c-6.7,1.3-13.3,2.7-20,4
			c0.7-1.3,1.3-2.7,2-4c15.3-4.5,38.1-5.4,50-14c4.3-6,8.7-12,13-18c8.7-3.3,17.3-6.7,26-10c5.5-3.4,7.3-9.4,14-12
			c0.3-0.3,0.7-0.7,1-1c15,1.7,30,3.3,45,5c3-4.7,7.4-5.2,11-9c-8.2-51.1-47.1-40-90-34c-18.3,0-36.7,0-55,0
			c-15.1,2.3-25.9,10.7-38,15c-16.3,5.8-39.3,10.3-53,0c0.3-4,0.7-8,1-12c6-11.3,46.6-33.9,61-37c14,2,28,4,42,6c9-6,18-12,27-18
			c24.8-8.6,58.7-8.7,80-22c30.4,0.1,42.7,25.6,69,32c23,5.6,33.6,0,44,17c5.3,17.3,10.7,34.7,16,52c-0.7,6-1.3,12-2,18
			C961.4,941.8,977.4,947.4,984,957.9z"/>
		<path class="st1" d="M941,1230.8c9.3,35.1-9.2,63.4-34,69c-11.7,1-23.3,2-35,3c-32.8,9.9-67.8,31.2-79,62
			c-5.9,16.1,8.9,28.7,16,36c26.6,27.3,53.9,18.2,66,66c15.9,63.1-57.1,113.3-16,169c-1.7,5-3.3,10-5,15c0.3,0.3,0.7,0.7,1,1
			c2-0.7,4-1.3,6-2c4.7-11.6,15.1-15.5,21-25c11.7-18.7,15.5-40,25-61c-0.1,39.5-45.3,112.9-63,141c-8,14.3-16,28.7-24,43
			c-37.6,50.1-108.6,93.3-175,113c-30.6,9.1-65.7,8.2-104,9c-20.9,0.4-48.3,6.3-74,2c-32.4-5.4-65.7-11.8-94-19
			c-21-5.3-42-10.7-63-16c-26.5-12.6-59.1-25.8-83-43c-26.7-21.7-53.3-43.3-80-65c-47.9-35.3-85.3-79.5-119-129
			c-13.2-19.4-38-43.7-24-79c0.3,0.7,0.7,1.3,1,2c12.5,19.9,17.8,44.1,31,63c15.6,22.3,41.5,40.9,61,60c23.3,22.8,41,51.9,66,73
			c25.3,21.4,51.7,37.1,79,57c19.7,14.4,36.1,36.9,60,47c49.1,20.8,98.7,22.2,163,30c19.9,2.4,47,7.3,63,0c18.8-8.6,29.9-28.1,35-50
			c5.1-21.7-22.3-67.3-42-66c-20.7,1.3-36.9,10.7-54,16c-30.3,9.5-65,6.9-97,1c-8-5.9-20.9-30.2-6-39c20.9-12.2,48.5-1.3,76-7
			c28.1-5.8,105.7-16.8,121-32c-1.6-23.5-33.1-12.1-52-18c-38.2-11.9-46.8-40.2-68-69c-10.5-14.2-21.7-9.8-32-18
			c-17.4-13.9-14.3-51.9-5-73c8.2-18.7,35.1-34.9,46-56c25.1-48.8,20.2-101.9,62-136c-0.7-16.3-1.3-32.7-2-49
			c-14.3-49-72.6-66.2-100-103c-12.6-16.9-1.4-49.9,12-59c10.4-7.1,23.3-0.3,38-3c20-5.3,40-10.7,60-16c14.9-0.4,28.5,1.3,37,7
			c-1.5,15-8.5,22-4,40c46.6,34.5,108.3-33.5,152-23c17.1,4.1,16.4,23.5,29,31c13.5,8,43.7,6.9,63,14c10,8,20,16,30,24
			c15.7,7.7,31.3,15.3,47,23c9.8,6,22.2,17.9,34,21c8,0.3,16,0.7,24,1C935,1219.5,938,1225.2,941,1230.8z"/>
		<path class="st0" d="M850,489.9c-1.7,3.3-3.3,6.7-5,10c-0.7,0.3-1.3,0.7-2,1c-5.1-3.1-0.8-7.1,2-11
			C846.7,489.9,848.4,489.9,850,489.9z"/>
		<path class="st0" d="M805,321c2,9,4,18,6,27c-1,1-2,2-3,3c-14.7,2.2-25.8-7.3-41-8c-6.5-8.3-13.9-18.5-16-31c1-1.3,2-2.7,3-4
			C774.1,308.5,790.5,314.5,805,321z"/>
		<path class="st0" d="M677.1,311c8.1,3.8,17.1,16.1,19,26c-27.5,9-54,3.3-64-17c7.1-8.7,21.4-5.5,33-10
			C669.1,310.3,673.1,310.6,677.1,311z"/>
		<path class="st1" d="M661.1,961.9c0.3,6,0.5,8.7-3,11c-10.8,8.9-32.9,1.7-45,0c-6.8,8.1-8.1,5.6-17,11c-15.8,9.6-16.5,32.1-35,40
			c-11.3,3.3-22.7,6.7-34,10c-3-0.3-6-0.7-9-1c-6,7.3-12,14.7-18,22c-8.1,4.9-13.4,2.8-23,5c-5,1.2-7.1,4.8-11,2
			c-0.7,0.3-1.3,0.7-2,1c0-0.7,0-1.3,0-2c-3.6-8.6,4.3-24.3,7-34c1.7-8.3,3.3-16.7,5-25c2.8-7.1,38.1-47.5,45-52
			c12-5.7,24-11.3,36-17c25.9-0.1,22.6,8.9,36,18c9,4,18,8,27,12c4.7,3.3,4,8.8,12,7c10.5-2.5,10.7-10.3,24-11
			C657.7,959.9,659.4,960.9,661.1,961.9z"/>
		<path class="st1" d="M631.1,791.9c9.7,25.6-34.4,60.2-47,32c-0.3-6-0.7-12-1-18c18.8-22.4,26-3.5,41-15
			C626.4,791.2,628.7,791.6,631.1,791.9z"/>
		<path class="st0" d="M557.1,483.9c-0.7,7-5.3,10.2-12,11c-0.7,3.3-1.3,6.7-2,10c-2.7-0.3-5.3-0.7-8-1c-2.1-3.5-3.4-4.6-4-10
			c-2,0-4,0-6,0c-0.3-2.3-0.7-4.7-1-7c1.3-1.7,2.7-3.3,4-5c6.9,0.1,8.9,0.7,10,7c0.3,0,0.7,0,1,0c5.6-3,6-4.7,7-11
			c0.7-0.3,1.3-0.7,2-1C553.2,478.8,553,481.4,557.1,483.9z"/>
		<path class="st0" d="M533.1,317c0.1,15.3-5.5,24.6-8,38c-0.3,7.3-0.7,14.7-1,22c-7.5,20.5-24.2,8.6-45,15c-4,3-8,6-12,9
			c-7.7,0.3-15.3,0.7-23,1c-12.7,3.6-34.2,19.5-55,11c-3.2-2.1-2.4-1-3-6c11.1-14.2,46.3-28.6,53-42c4.6-9.3,9.2-21.6,18-26
			c13.3-6.7,23.1-0.8,35,1c0.3,0,0.7,0,1,0c3.7-5.4,6.2-18.3,7-26c1.7-1,3.3-2,5-3c8.3,1.3,16.7,2.7,25,4
			C531.1,315.6,532.1,316.3,533.1,317z"/>
		<path class="st0" d="M520.2,290.1c0.3,0.6,0.6,1.2,0.9,1.8c-3.5,2.8-5.6,1.8-9,0c0.3-0.7,0.7-1.3,1-2c2.2,0,4.5,0,6.7,0
			C519.9,290,520,290.1,520.2,290.1z"/>
		<path class="st0" d="M520.1,290c0,0.1,0,0.1,0.1,0.2c-0.1-0.1-0.3-0.1-0.4-0.2C519.9,290,520,290,520.1,290z"/>
		<path class="st0" d="M478.3,299.7c-0.1,0.1-0.2,0.2-0.3,0.3c-0.7,0-1.3,0-2,0C476.8,299.9,477.6,299.8,478.3,299.7z"/>
		<path class="st1" d="M205.1,653.9c-5.3,9-10.7,18-16,27c-2.8,11,3.6,19,5,25c-3.3,13.7-6.7,27.3-10,41c-14.9-7.5-31.8,8.5-51,0
			c-2.1-6.5-4.5-49-1-58c6.7-9.3,13.3-18.7,20-28c0.4-1.3,4-34,4-34c-1.7-6.4-6.8-6.8-8-15c5.5-13.2,15.6-29,25-39c2,0.3,4,0.7,6,1
			C182.6,603.7,200.5,627.2,205.1,653.9z M195.1,641.9c-0.3-1-0.7-2-1-3c-2,0-4,0-6,0c-0.1-4.5-2.6-5.4-6-9c-1.3,0-2.7,0-4,0
			c-3.2,2.9-8.2,1.9-13,4c0,1,0,2,0,3c0.7,0.7,1.3,1.3,2,2c9.3,0.5,17.6,1.5,24,7C193.3,644.4,193.6,644.1,195.1,641.9z"/>
		<path class="st0" d="M194.1,638.9c0.3,1,0.7,2,1,3c-1.5,2.2-1.8,2.5-4,4c-6.4-5.5-14.7-6.5-24-7c-0.7-0.7-1.3-1.3-2-2c0-1,0-2,0-3
			c4.8-2.1,9.8-1.1,13-4c1.3,0,2.7,0,4,0c3.4,3.6,5.9,4.5,6,9C190.1,638.9,192.1,638.9,194.1,638.9z"/>
		<path class="st1" d="M162.1,817.9c11.3,9.3-2.7,55.3-11,61c-2,0-4,0-6,0c-1.3-2.7-2.7-5.3-4-8c2-0.7,4-1.3,6-2
			C147.7,845.6,156.4,835.6,162.1,817.9z"/>
		<path class="st1" d="M159.1,544.9c-2,7.8-6.3,7-10,12c-2.3,7.7-4.7,15.3-7,23c-5,9.3-10,18.7-15,28c-5.5,15.2-5.9,26.5-10,42
			c-5,11.7-10,23.3-15,35c-3.1,11.1-2.9,24.7-8,34c-0.7-0.3-1.3-0.7-2-1c-6-20.7-12-41.3-18-62c-7.4-37.8,11-94.2,28-107
			c10.2-7.7,21.7-10.9,34-17C149.2,532.2,152.5,538.6,159.1,544.9z"/>
	</g>
	<g>
		<path class="st2" d="M763,0c0.3,1.3,0.7,2.7,1,4c1.3,0,2.7,0,4,0c3.9-2.8,4.6-3.9,12-4c0,0.3,0,0.7,0,1c-0.7,1.3-1.3,2.7-2,4
			c9.9-6.6,18.8-3.9,26,0c0.4-2.6-1-0.6,1-3c0.7,1.3,1.3,2.7,2,4c9.9-5.5,17.7-4,30-5c0,0.3,0,0.7,0,1c-0.7,2-1.3,4-2,6
			c0.3,0,0.7,0,1,0c2.7-1.7,5.3-3.3,8-5c0.3,1.7,0.7,3.3,1,5c6.4-1.7,8.4-5.8,11,0c-1,0.7-2,1.3-3,2c9.9-3.4,21.4,4.2,22,13
			c9.5-1.3,28.9,3.4,37,9c-0.7,1.3-1.3,2.7-2,4c7.1,0.9,16.3,5.3,28,4c0,0.3,0,0.7,0,1c-0.7,1-1.3,2-2,3c-2.5,1.5-2.5,1.5-4,4
			c0.3,0,0.7,0,1,0c5.7-3.8,8.3-4.4,16-5c-1.3,2.3-2.7,4.7-4,7c6.2-2.3,11-8.1,16-3c-1.3,2.3-2.7,4.7-4,7c2.7-0.3,5.3-0.7,8-1
			c1.3,2.7,2.7,5.3,4,8c9.1-1.6,16.1,1,24,5c-1.5,4.5-1.8,5.6,0,9c1.7-1,3.3-2,5-3c1.3,0.7,2.7,1.3,4,2c-1.3,2.3-2.7,4.7-4,7
			c0.3,0,0.7,0,1,0c4.3-1,8.7-2,13-3c2,5.4,0,3.7,6,4c-0.7,2.7-1.3,5.3-2,8c3.3,0,6.7,0,10,0c-0.7,1.3-1.3,2.7-2,4c2-0.7,4-1.3,6-2
			c0,0.3,0,0.7,0,1c-1.3,2.3-2.7,4.7-4,7c2.7-1.3,5.3-2.7,8-4c0,0.3,0,0.7,0,1c-1.7,2-3.3,4-5,6c-5.5,2.7-6.5,7.7-9,13
			c6.8-3.8,6.1-9,12-14c0.3,0,0.7,0,1,0c0.7,5.4,0,4.1,4,6c-1.7,2.7-3.3,5.3-5,8c6.3-0.7,8,1.3,15-1c0.3,2.7,0.7,5.3,1,8
			c5.3-1.3,10.7-2.7,16-4c0,0.3,0,0.7,0,1c-4.7,5.2-8.4,7.3-10,16c1,0,2,0,3,0c2.3-1,4.7-2,7-3c-0.3,1.3-0.7,2.7-1,4
			c-2.2,3.1-4.9,3.9-7,7c4.7-3.3,9.3-6.7,14-10c0.3,0.3,0.7,0.7,1,1c-2.3,3.3-4.7,6.7-7,10c4.6-2.7,7.6-5,14-6c0,0.3,0,0.7,0,1
			c-1,1.7-2,3.3-3,5c5-0.8,3.4-3.3,6,1c-1.7,0.7-3.3,1.3-5,2c-3.4,0.6-7.5,5.6-10,10c5.1-2,7.5-4.5,10-9c0.7,0.3,1.3,0.7,2,1
			c1.3,8.5,9.5,14.7,17,17c-1.4,2.9-12.8,17.8-10,22c0.3,0,0.7,0,1,0c0.7-3.7-0.5-6.1,4-8c0.9,4.5-0.1,3,3,5c0-5.2,4.2-11.6,9-15
			c1.3,2.3,2.7,4.7,4,7c-1.9,9.3-7.4,12.1-10,20c7.2-1.6,5.8-2,13-1c-5.6,12-12.5,17.2-22,25c0.3,0.7,0.7,1.3,1,2
			c7.3,0.6,8.6-0.6,15-2c0,0.3,0,0.7,0,1c-0.7,0-1.3,0-2,0c-4,3.7-8,7.3-12,11c0.3,2,0.7,4,1,6c0.3,0,0.7,0,1,0
			c7.7-1.7,14.1-2.7,23-3c0,0.3,0,0.7,0,1c-5.4,0.5-8,0.6-10,5c1.3,0,2.7,0,4,0c-2,2.3-4,4.7-6,7c0,1,0,2,0,3c4,0.4,3.9,0.3,6,2
			c-0.3,0.7-0.7,1.3-1,2c-2.7,1-5.3,2-8,3c0,0.3,0,0.7,0,1c4-0.7,8-1.3,12-2c-1.3,2-2.7,4-4,6c4.7-1.2,24.3,3.8,28,7
			c0,0.3,0,0.7,0,1c-10.8-0.9-23.5-1.9-26,8c0.7,0,1.3,0,2,0c2.9,0.8,2.7,0,6-1c-3.2,7.9,1.4,7.4,9,10c-0.7,0-1.3,0-2,0
			c-0.3,0.7-0.7,1.3-1,2c-7.7,0.7-15.3,1.3-23,2c-0.6,4.4,2,2-2,4c-11.7-36.4-26.9-67-56-86c-4.3-5.3-8.7-10.7-13-16
			c-15.7-9.6-17.1,7.3-30-15c-1.7,0-3.3,0-5,0c-2.6,2.2-4.4,4.7-7,7c-22.7-10.8-14-0.1-27,9c-7-4-14-8-21-12c-0.3-0.3-0.7-0.7-1-1
			c-3.7-7.3-7.3-14.7-11-22c-7.7-7.7-15.3-15.3-23-23c0-5,0-10,0-15c-5.4-1.3-10.8,0.4-15-3c-2-3-4-6-6-9c-11.2,0.6-19.3-0.3-26,1
			c0.9-5.4,1-5.4,2-9c2-0.7,4-1.3,6-2c-0.7-0.7-1.3-1.3-2-2c-31.8,13.9-42.2-3.9-69-11c-10.3,0.7-20.7,1.3-31,2c-9-2.7-18-5.3-27-8
			c-8.6-1.5-14.1,3.7-20,5c-13.3-0.7-26.7-1.3-40-2c-13.7,3.7-27.3,7.3-41,11c-1-4.5-1.6-4.4-4-7c-0.3,0-0.7,0-1,0
			c-34.5,27.5-90.8,34.8-126,61c-23.4,17.4-34.6,61.1-53,86c-16.6,0.9-36.9,2.1-47,7c-2.7,1.3-4.7,6-9,7c-9.1,2.2-15.3-2.9-21-4
			c-10.4-2-21.1,3.8-29,7c-22.3,9.1-32.6,33.6-48,50c-9.7,10.3-24.8,16.1-34,27c-44.3,52.5-60.6,102.1-81,176c-3.3,0-6.7,0-10,0
			c-3-2-6-4-9-6c-3.6-7.1,6.5-24.6,8-29c-0.7-7-1.3-14-2-21c5.8-25.3,15.8-51.6,26-72c-1.7-0.3-3.3-0.7-5-1
			c9.4-24.1,25.9-52.8,41-72c6-7.7,6.8-20.4,12-28c8.2-12.1,33.7-27.9,35-42c4.2,1.4,10,1.4,13-1c3.5-3,3.4-9.1,3-16
			c1.7,0.7,3.3,1.3,5,2c0-1.7,0-3.3,0-5c-1.7-3.6-2.4-3.7,0-7c4.4-0.9,5.7-2.7,13-1c0.9-10.5,23.4-20.9,30-32c2.6,1.8,1.8,2,6,3
			c2.4-13.3,14.1-11.9,21-20c2.3-4.7,4.7-9.3,7-14c0,1,0,2,0,3c7.6-2.4,19.8-10.5,23-18c9-0.4,21.8-8.8,24-5c4-3.3,8-6.7,12-10
			c0.5,5,0.5,4.6,3,7c1.7-0.3,3.3-0.7,5-1c1-3.3,2-6.7,3-10c1.5,4.2-0.2,2.5,4,4c4.8-16.1,14.4-14.5,23-25c0.9,0.5,2.2,3.6,5,2
			c3.1-1.8,1.7-6.3,4-9c7.4-8.9,24.6-8.6,32-18c0.8,0.7,5,4.1,8,2c4.4-3,1.3-6.5,9-8c2,3.7-0.4,1.6,4,3c11.2-17.6,50.4-13.6,69-35
			c0.7,0.7,1.3,1.3,2,2c0,1,0,2,0,3c7.7-5.1,22.2-10.7,35-16c3.1,2.6,3.3,0,3,4c13.6-7.6,19.5-5.7,33,1c3.6-3.4,5.6-8.4,9-12
			c2.8,2.7,2.6,2,2,6c10.6-7,15.3-7,29-12c0.9,5.4,1.8,4.6,4,8c4.7-2.7,23-8.9,32-9c0,1.7,0,3.3,0,5C758.5,5.1,760.2,4.3,763,0z"/>
		<path class="st2" d="M1049,131c-1,1.7-2,3.3-3,5c1.7-1.7,3.3-3.3,5-5C1050.3,131,1049.7,131,1049,131z"/>
		<path class="st2" d="M1084,166c-2,1-4,2-6,3c2.7,3.6,2.7,0.4,1,5c2.7-1.7,5.3-3.3,8-5c-0.7-1-1.3-2-2-3
			C1084.7,166,1084.3,166,1084,166z"/>
		<path class="st2" d="M1088,192c-0.7,1-1.3,2-2,3C1089.1,193.2,1087.5,194,1088,192z"/>
		<path class="st2" d="M1095,200c-0.7-0.3-1.3-0.7-2-1"/>
		<path class="st2" d="M1104,199c-0.7,1.3-1.3,2.7-2,4c0.7-0.3,1.3-0.7,2-1C1104,201,1104,200,1104,199z"/>
		<path class="st2" d="M1075,202c-0.3,0.7-0.7,1.3-1,2C1076.1,203.1,1075.1,204,1075,202z"/>
		<path class="st2" d="M478.3,299.7c16.6-16.7,29.2-14.8,41.4-9.8"/>
		<path class="st2" d="M478.3,299.7c-0.8,0.1-1.5,0.2-2.3,0.3c0.7,0,1.3,0,2,0C478.2,299.9,478.3,299.8,478.3,299.7z"/>
		<path class="st2" d="M520.2,290.1c11.1,4.6,21.8,11.8,34.9,9.8c0.3-2,0.7-4,1-6c-3,0.3-6,0.7-9,1c0.7-0.7,1.3-1.3,2-2
			c9.5-20.3,34.5-44.8,54-55c12.3-3,24.7-6,37-9c36.2-0.8,63.4,7.4,90,14c7.3-0.7,14.7-1.3,22-2c29,7.7,55.6,23.9,81,35
			c67,29.4,135.5,57.9,200,87c53.8,24.3,122,52.8,155,97c13.5,18,29.1,38.5,37,61c4,19,8,38,12,57c10.3,4.2,18,10.5,25,18
			c-0.1,23-21.1,26.6-32,39c-29.7,33.6-29.2,53.9-80,70c-19.3,6.1-21.2,10.1-43,5c-1-2.7-2-5.3-3-8c-1.7,0.3-3.3,0.7-5,1
			c-1.7,7.7-5.3,11.6-10,16c-10.9-0.5-16.6-5.7-25-2c-4.5,18.9,9.6,22.9-4,43c-24.1,7.1-65.4,4.1-70-21c3.2-8.1,8.8-18.1,11-24
			c0-0.7,0-1.3,0-2c-0.7-12-1.3-24-2-36c1.5-8.5,7.3-16.7,5-28c-5.8-28.8-19.1-52.7-28-77c-2-12.3-4-24.7-6-37
			c-6-14.3-12-28.7-18-43c-9.2-24.8-29.6-85.1-70-61c-1.7,3.7-3.3,7.3-5,11c2,9.1,6.5,9.6,0,15c-7.1,17.4-22.8,35.2-30,52
			c-2,7.3-4,14.7-6,22c-10.3,11.7-20.7,23.3-31,35c-4.3,11-8.7,22-13,33c-7.3,8.3-14.7,16.7-22,25c-6.6,10.4-23.8,47.3-6,56
			c10.9-4.7,12.4-10.1,20-17c5.2-4.7,44.4-17.9,57-14c6.5,2,11.2,8.1,16,11c13.1,7.9,12.8-6.2,22,12c19.1-5,38.4-32.9,68-21
			c7.3,3,9.1,13.1,16,16c9.2,3.9,15.8,1,22,7c-5.8,14.3-25.3,17-34,29c0.3,1,0.7,2,1,3c1.7,0,3.3,0,5,0c7.8-4.5,14.3-8.1,25-6
			c0.7,17.1-2.4,26.1-5,41c0.7,5,1.3,10,2,15c-1.1,4.2-7.1,8.6-8,15c-2.6,18,11.6,22.5,1,48c-11.2-1.6-29.7-10-35-18
			c-2.3-6-4.7-12-7-18c-1.7,0-3.3,0-5,0c-6,4.3-5.4,8.3-16,9c-15.5-9.6-39.8-14.4-50-29c-9.3-13.3-3.5-26.6-22-31
			c-22.7-5.5-46.9,13.9-74,6c-11.9-3.4-24.5-18.9-33-27c-28.7-0.3-31,18-54,21c-0.7-1.3-1.3-2.7-2-4c4.8-2,5.5-3.7,6-10
			c-5-6-10-12-15-18c3.3-6.9,20.8-9,27-13c0.6-15.5-2.5-36.1-13-43c-15.5-10.2-51.9-1.4-72-5c-21.2-3.8-35-10.2-49-21
			c-26.6-20.5-14.4-71.1-29-104c-19.6-44.1-65.6-66.4-99-97c-24.9,0-39.1,9.2-55,16c-10.7,2.3-21.3,4.7-32,7
			c-14.1,8.8-39.9,32.9-50,46c-3.7,5.7-7.3,11.3-11,17c-9,5-18,10-27,15c-11,7.9-13.9,23-31,25c-8.6-3-22.3-5.9-27-13
			c-0.7-1.3-1.3-2.7-2-4c3.9-19.6,23.1-18.5,37-28c7.9-5.4,10.3-14.5,21-18c-9.4,14.9-26.4,24.5-33,42c1.3-0.7,2.7-1.3,4-2
			c9.5-19,35-29.7,48-46c23.1-29,56.5-50.2,86-73c26-22.7,52-45.3,78-68c9.4-7.2,29.1-14.8,34-20c-0.7-1.7-1.3-3.3-2-5
			c5.6-1.5,10.3-3.2,12-9c-2.3,0.3-4.5,0.5-6.8,0.8"/>
		<path class="st2" d="M875,365c2.3,0.3,4.7,0.7,7,1c8.3,3.4,8,8.6,13,15c9.3-0.3,18.7-0.7,28-1c7.2,15.7,15.9,4.5,31,11
			c11.1,4.8,22.2,18.2,37,9c3-6.3,6-12.7,9-19c-11-17.1-34.4-13.1-57-19c0-1,0-2,0-3c0.7-0.7,1.3-1.3,2-2c11.6,0.4,23.6-1,30-6
			c-9.5-12-25.2-12-39-20c-27.7-16-60.9-25.9-92-38c-12.8-5-23.6-14.2-40-15c-0.7,0.3-1.3,0.7-2,1c0.3,1,0.7,2,1,3
			c8.3,8.3,16.7,16.7,25,25c21.5-4.5,57,4.7,64,23c-11.4-0.7-15.6,0.5-19,8c2,6.6,3.9,10,7,15C876.8,357.1,875.2,357,875,365z"/>
		<path class="st2" d="M519.8,290c-2.2,0-4.5,0-6.7,0c-0.3,0.7-0.7,1.3-1,2c3.4,1.8,5.5,2.8,9,0c-0.3-0.6-0.6-1.2-0.9-1.8
			c0,0,0-0.1-0.1-0.2C520,290,519.9,290,519.8,290z"/>
		<path class="st2" d="M754,308c-1,1.3-2,2.7-3,4c2.1,12.5,9.5,22.7,16,31c15.2,0.8,26.3,10.2,41,8c1-1,2-2,3-3c-2-9-4-18-6-27
			C790.5,314.5,774.1,308.5,754,308z"/>
		<path class="st2" d="M665.1,310c-11.6,4.5-25.8,1.3-33,10c10,20.3,36.5,26,64,17c-1.9-9.9-10.9-22.2-19-26
			C673.1,310.6,669.1,310.3,665.1,310z"/>
		<path class="st2" d="M505.1,311c-1.7,1-3.3,2-5,3c-0.8,7.7-3.3,20.6-7,26c-0.3,0-0.7,0-1,0c-11.9-1.8-21.7-7.7-35-1
			c-8.8,4.4-13.4,16.7-18,26c-6.7,13.4-41.9,27.8-53,42c0.6,5-0.2,3.9,3,6c20.8,8.6,42.3-7.4,55-11c7.7-0.3,15.3-0.7,23-1
			c4-3,8-6,12-9c20.8-6.4,37.5,5.5,45-15c0.3-7.3,0.7-14.7,1-22c2.5-13.4,8.1-22.7,8-38c-1-0.7-2-1.3-3-2
			C521.7,313.6,513.4,312.3,505.1,311z"/>
		<path class="st2" d="M1059,387c-1.3,0.3-2.7,0.7-4,1c0,0.3,0,0.7,0,1c0.7,0.3,1.3,0.7,2,1c2.7,0.3,5.3,0.7,8,1
			c-0.3-1.3-0.7-2.7-1-4C1062.3,387,1060.7,387,1059,387z"/>
		<path class="st2" d="M1033,394c-13.3,9.4-30.6,15.3-35,33c0.3,0,0.7,0,1,0c1.7-1.3,3.3-2.7,5-4c8.6-15.5,33.4-18.6,39-29
			C1039.7,394,1036.3,394,1033,394z"/>
		<path class="st2" d="M1013,417.9c-2.3,1.7-4.7,3.3-7,5c0.4,27.6,34.6,40.3,58,24c0.1-12.4-3.1-19.5-6-28
			C1043,418.6,1028,418.3,1013,417.9z"/>
		<path class="st2" d="M525.1,493.9c2,0,4,0,6,0c0.6,5.4,1.9,6.5,4,10c2.7,0.3,5.3,0.7,8,1c0.7-3.3,1.3-6.7,2-10
			c6.7-0.8,11.3-3.9,12-11c-4.1-2.5-3.9-5.1-9-7c-0.7,0.3-1.3,0.7-2,1c-1,6.3-1.4,8-7,11c-0.3,0-0.7,0-1,0c-1.1-6.3-3.1-6.9-10-7
			c-1.3,1.7-2.7,3.3-4,5C524.4,489.3,524.7,491.6,525.1,493.9z"/>
		<path class="st2" d="M845,489.9c-2.8,3.9-7.1,7.9-2,11c0.7-0.3,1.3-0.7,2-1c1.7-3.3,3.3-6.7,5-10
			C848.4,489.9,846.7,489.9,845,489.9z"/>
		<path class="st2" d="M136.1,531.9c13.1,0.3,16.4,6.7,23,13c-2,7.8-6.3,7-10,12c-2.3,7.7-4.7,15.3-7,23c-5,9.3-10,18.7-15,28
			c-5.5,15.2-5.9,26.5-10,42c-5,11.7-10,23.3-15,35c-3.1,11.1-2.9,24.7-8,34c-0.7-0.3-1.3-0.7-2-1c-6-20.7-12-41.3-18-62
			c-7.4-37.8,11-94.2,28-107C112.4,541.2,123.9,538,136.1,531.9z"/>
		<path class="st2" d="M173.1,572.9c2,0.3,4,0.7,6,1c3.5,29.8,21.4,53.3,26,80c-5.3,9-10.7,18-16,27c-2.8,11,3.6,19,5,25
			c-3.3,13.7-6.7,27.3-10,41c-14.9-7.5-31.8,8.5-51,0c-2.1-6.5-4.5-49-1-58c6.7-9.3,13.3-18.7,20-28c0.4-1.3,4-34,4-34
			c-1.7-6.4-6.8-6.8-8-15C153.7,598.8,163.7,582.9,173.1,572.9z"/>
		<path class="st2" d="M1237,595.9c-1.3,1.7-2.7,3.3-4,5c0.7,0.7,1.3,1.3,2,2c2.3-0.7,4.7-1.3,7-2c0.3-0.7,0.7-1.3,1-2
			c-0.7-0.3-1.3-0.7-2-1C1239.7,597.3,1238.3,596.6,1237,595.9z"/>
		<path class="st2" d="M178.1,629.9c-3.2,2.9-8.2,1.9-13,4c0,1,0,2,0,3c0.7,0.7,1.3,1.3,2,2c9.3,0.5,17.6,1.5,24,7
			c2.2-1.5,2.5-1.8,4-4c-0.3-1-0.7-2-1-3c-2,0-4,0-6,0c-0.1-4.5-2.6-5.4-6-9C180.8,629.9,179.5,629.9,178.1,629.9z"/>
		<path class="st2" d="M1196,673.9c-5.2,7-12.9,11.9-21,16c0.3,0.7,0.7,1.3,1,2c0.3,0,0.7,0,1,0c7.4-2.1,17.8-10.6,20-18
			C1196.7,673.9,1196.3,673.9,1196,673.9z"/>
		<path class="st2" d="M624.1,790.9c2.3,0.3,4.7,0.7,7,1c9.7,25.6-34.4,60.2-47,32c-0.3-6-0.7-12-1-18
			C601.9,783.5,609.1,802.4,624.1,790.9z"/>
		<path class="st2" d="M830,809.9c30.4,0.1,42.7,25.6,69,32c23,5.6,33.6,0,44,17c5.3,17.3,10.7,34.7,16,52c-0.7,6-1.3,12-2,18
			c4.3,12.9,20.4,18.5,27,29c13.1,20.9,7.2,48.4,7,76c-1.7,1.7-3.3,3.3-5,5c-6.7-0.6-10.7-3.2-15-6c-4.7-9.7-9.3-19.3-14-29
			c-5-15.1-2.6-28.9-7-46c-5.9-22.7-35.8-59.2-64-50c-7.3,0-14.7,0-22,0c-1,0.7-2,1.3-3,2c1.7,5.7,3.3,11.3,5,17
			c28.5,3.1,51.4,23.7,58,49c4.7,18.3-6.9,42.1-10,58c-3.3,17.2-0.1,27-7,38c-34.7,10.6-32-13.3-52-21c-14.3-5.5-38.4-5.5-52-14
			c-9.3-5.8-10.4-16.2-25-22c-18.7-7.4-42.8-11.2-59-22c-0.1-6.1,0.7-13.6-3-18c-1-1.3-2-2.7-3-4c-6.7,1.3-13.3,2.7-20,4
			c0.7-1.3,1.3-2.7,2-4c15.3-4.5,38.1-5.4,50-14c4.3-6,8.7-12,13-18c8.7-3.3,17.3-6.7,26-10c5.5-3.4,7.3-9.4,14-12
			c0.3-0.3,0.7-0.7,1-1c15,1.7,30,3.3,45,5c3-4.7,7.4-5.2,11-9c-8.2-51.1-47.1-40-90-34c-18.3,0-36.7,0-55,0
			c-15.1,2.3-25.9,10.7-38,15c-16.3,5.8-39.3,10.3-53,0c0.3-4,0.7-8,1-12c6-11.3,46.6-33.9,61-37c14,2,28,4,42,6c9-6,18-12,27-18
			C774.8,823.3,808.8,823.2,830,809.9z"/>
		<path class="st2" d="M162.1,817.9c11.3,9.3-2.7,55.3-11,61c-2,0-4,0-6,0c-1.3-2.7-2.7-5.3-4-8c2-0.7,4-1.3,6-2
			C147.7,845.6,156.4,835.6,162.1,817.9z"/>
		<path class="st2" d="M557.1,932.9c25.9-0.1,22.6,8.9,36,18c9,4,18,8,27,12c4.7,3.3,4,8.8,12,7c10.5-2.5,10.7-10.3,24-11
			c1.7,1,3.3,2,5,3c0.3,6,0.5,8.7-3,11c-10.8,8.9-32.9,1.7-45,0c-6.8,8.1-8.1,5.6-17,11c-15.8,9.6-16.5,32.1-35,40
			c-11.3,3.3-22.7,6.7-34,10c-3-0.3-6-0.7-9-1c-6,7.3-12,14.7-18,22c-8.1,4.9-13.4,2.8-23,5c-5,1.2-7.1,4.8-11,2
			c-0.7,0.3-1.3,0.7-2,1c0-0.7,0-1.3,0-2c-3.6-8.6,4.3-24.3,7-34c1.7-8.3,3.3-16.7,5-25c2.8-7.1,38.1-47.5,45-52
			C533.1,944.2,545.1,938.6,557.1,932.9z"/>
		<path class="st2" d="M954,1059.9c6.5,2.6,8.7,10.1,14,14c7.5,5.5,23,7.1,28,15c25,38.4-3,80.4-15,113c-0.7-0.3-1.3-0.7-2-1
			c-4.5-15.6-1.8-30.9-5-49c0.7-4,1.3-8,2-12c-0.9-2-6.9-5.3-8-8c0.7-9.7,1.3-19.3,2-29C967.2,1090.7,959.4,1073.3,954,1059.9z"/>
		<path class="st2" d="M520.1,1075.9c14.9-0.4,28.5,1.3,37,7c-1.5,15-8.5,22-4,40c46.6,34.5,108.3-33.5,152-23
			c17.1,4.1,16.4,23.5,29,31c13.5,8,43.7,6.9,63,14c10,8,20,16,30,24c15.7,7.7,31.3,15.3,47,23c9.8,6,22.2,17.9,34,21
			c8,0.3,16,0.7,24,1c3,5.7,6,11.3,9,17c9.3,35.1-9.2,63.4-34,69c-11.7,1-23.3,2-35,3c-32.8,9.9-67.8,31.2-79,62
			c-5.9,16.1,8.9,28.7,16,36c26.6,27.3,53.9,18.2,66,66c15.9,63.1-57.1,113.3-16,169c-1.7,5-3.3,10-5,15c0.3,0.3,0.7,0.7,1,1
			c2-0.7,4-1.3,6-2c4.7-11.6,15.1-15.5,21-25c11.7-18.7,15.5-40,25-61c-0.1,39.5-45.3,112.9-63,141c-8,14.3-16,28.7-24,43
			c-37.6,50.1-108.6,93.3-175,113c-30.6,9.1-65.7,8.2-104,9c-20.9,0.4-48.3,6.3-74,2c-32.4-5.4-65.7-11.8-94-19
			c-21-5.3-42-10.7-63-16c-26.5-12.6-59.1-25.8-83-43c-26.7-21.7-53.3-43.3-80-65c-47.9-35.3-85.3-79.5-119-129
			c-13.2-19.4-38-43.7-24-79c0.3,0.7,0.7,1.3,1,2c12.5,19.9,17.8,44.1,31,63c15.6,22.3,41.5,40.9,61,60c23.3,22.8,41,51.9,66,73
			c25.3,21.4,51.7,37.1,79,57c19.7,14.4,36.1,36.9,60,47c49.1,20.8,98.7,22.2,163,30c19.9,2.4,47,7.3,63,0c18.8-8.6,29.9-28.1,35-50
			c5.1-21.7-22.3-67.3-42-66c-20.7,1.3-36.9,10.7-54,16c-30.3,9.5-65,6.9-97,1c-8-5.9-20.9-30.2-6-39c20.9-12.2,48.5-1.3,76-7
			c28.1-5.8,105.7-16.8,121-32c-1.6-23.5-33.1-12.1-52-18c-38.2-11.9-46.8-40.2-68-69c-10.5-14.2-21.7-9.8-32-18
			c-17.4-13.9-14.3-51.9-5-73c8.2-18.7,35.1-34.9,46-56c25.1-48.8,20.2-101.9,62-136c-0.7-16.3-1.3-32.7-2-49
			c-14.3-49-72.6-66.2-100-103c-12.6-16.9-1.4-49.9,12-59c10.4-7.1,23.3-0.3,38-3C480.1,1086.5,500.1,1081.2,520.1,1075.9z"/>
	</g>
</g>
</svg>
